<svg width="66" height="66" viewBox="0 0 66 66" fill="none" xmlns="http://www.w3.org/2000/svg">
<rect x="1" y="1" width="64" height="64" rx="32" fill="white" stroke="#151D65" stroke-width="2"/>
<path d="M24.4949 42.7654C28.6605 40.7483 28.815 34.6679 27.3922 28.3903C29.8954 27.3171 35.8838 26.1848 34.2173 30.4467C32.5514 34.7087 36.9561 38.965 38.5797 41.5358L35.4246 47.238C29.529 46.0053 20.3286 44.7825 24.4949 42.7654Z" fill="#FFDACA"/>
<path fill-rule="evenodd" clip-rule="evenodd" d="M35.5804 37.332C35.1647 41.3938 27.9109 45.7775 27.2925 39.7354C18.2301 41.377 14.5747 54.4132 14.5747 54.4132C14.5747 54.4132 52.7951 51.7754 51.4833 49.5884C48.1262 43.9935 40.8729 37.7457 35.5804 37.332Z" fill="#FF7278"/>
<path d="M26.2055 19.1344L38.0325 18.1475C38.2328 20.9392 41.2869 33.4616 35.6708 32.8559C35.2069 32.8058 34.7583 32.7574 34.3249 32.7107C29.3377 32.1728 25.4122 28.2127 24.916 23.2211L26.2055 19.1344Z" fill="#FFDACA"/>
<path fill-rule="evenodd" clip-rule="evenodd" d="M35.9251 24.2828C35.9961 24.2187 36.1059 24.2245 36.1699 24.2959L36.0407 24.412C36.1699 24.2959 36.1699 24.2959 36.1699 24.2959L36.1752 24.3017C36.1787 24.3054 36.1834 24.3109 36.1899 24.3181C36.2028 24.3324 36.2216 24.3534 36.2451 24.3801C36.2921 24.4337 36.359 24.5106 36.4395 24.604C36.5992 24.7908 36.8118 25.0447 37.0202 25.312C37.2281 25.5785 37.436 25.8624 37.5839 26.1084C37.6573 26.2308 37.7196 26.3495 37.7595 26.4553C37.7953 26.5511 37.8282 26.6753 37.7924 26.7872C37.7437 26.9387 37.6133 27.0781 37.4824 27.192C37.3449 27.3115 37.1782 27.4268 37.0202 27.5261C36.8617 27.6259 36.7084 27.7121 36.5945 27.7733C36.5375 27.8039 36.49 27.8284 36.4571 27.8453C36.4406 27.8537 36.4271 27.8603 36.4183 27.8648C36.4136 27.867 36.4101 27.8688 36.4078 27.87L36.4048 27.8713L36.4042 27.8717V27.8719C36.4042 27.8719 36.4042 27.8719 36.3279 27.7158L36.4042 27.8719C36.3179 27.914 36.214 27.8784 36.1717 27.7921C36.1294 27.7059 36.1652 27.6019 36.2516 27.5597L35.9251 24.2828ZM36.2516 27.5597L36.2521 27.5595L36.2539 27.5584C36.2563 27.5574 36.2592 27.5558 36.2633 27.5538C36.2715 27.5498 36.2833 27.5437 36.2991 27.5357C36.3302 27.5198 36.3755 27.4965 36.4301 27.4672C36.5393 27.4084 36.6855 27.3263 36.8352 27.232C36.9856 27.1372 37.1359 27.0327 37.2545 26.9297C37.3784 26.8216 37.4436 26.736 37.4612 26.6819C37.4612 26.6825 37.4606 26.6828 37.4606 26.6828C37.46 26.6826 37.4624 26.6536 37.4342 26.5774C37.4048 26.5 37.3549 26.4019 37.2856 26.2875C37.1488 26.0595 36.9515 25.7886 36.7466 25.5258C36.5422 25.2641 36.3332 25.0145 36.1752 24.8301C36.0965 24.738 36.0302 24.6623 35.9844 24.6098C35.9609 24.5835 35.9427 24.563 35.9304 24.5491C35.9245 24.5422 35.9198 24.5369 35.9163 24.5334L35.9116 24.5282C35.9116 24.5282 35.9116 24.5282 35.9192 24.5217L35.9116 24.5282C35.8476 24.4569 35.8534 24.347 35.9251 24.2828" fill="#3F3F3F"/>
<path d="M43.0582 16.7266C43.0582 19.4836 39.9906 21.7997 37.2337 21.7997C34.4767 21.7997 28.5083 19.2658 28.5083 16.5088C28.5083 13.7519 34.4767 11.8159 37.2337 11.8159C39.9906 11.8159 43.0582 13.9697 43.0582 16.7266Z" fill="#FFCB4F"/>
<path d="M21.3103 20.7031C22.5275 18.2294 27.0949 14.8744 29.5682 16.0918C32.0421 17.309 37.593 21.95 30.4578 25.7342C29.6469 27.3829 33.0791 33.2873 31.3727 36.071C25.6844 45.3501 16.5345 30.4086 21.3103 20.7031Z" fill="#FFCB4F"/>
<path d="M31.9736 32.0967L33.8692 32.6439C33.9167 33.5891 34.3812 35.1038 34.7018 35.7578C33.7623 35.3414 32.4587 33.0932 31.9736 32.0967Z" fill="#3F3F3F"/>
</svg>
