<svg width="942" height="745" viewBox="0 0 942 745" fill="none" xmlns="http://www.w3.org/2000/svg">
<path d="M347.245 665.189C253.698 664.086 160.155 664.718 66.6155 667.087C58.5686 667.291 50.2185 667.553 43.1124 669.684C36.0063 671.815 30.5376 676.387 32.4819 680.778C68.9968 681.859 105.549 682.192 142.14 681.78C150.108 685.683 158.856 691.562 153.959 696.825C150.57 700.468 142.206 701.552 134.891 701.561C121.642 701.576 108.34 699.401 95.2868 700.677C82.234 701.953 69.2096 708.818 73.0333 715.946C75.9369 721.358 86.9528 724.037 96.9778 724.515C107.003 724.994 117.268 723.999 127.067 725.281C136.379 726.499 144.447 729.663 153.162 731.873C166.91 735.357 182.149 736.434 197.143 737.35C312.273 744.384 428.358 744.328 544.167 744.264C591.051 744.238 638.572 744.167 683.846 737.323C709.653 733.422 734.383 727.363 760.516 724.219C791.731 720.464 823.992 720.974 855.914 721.087C911.955 721.284 967.948 720.204 1023.89 717.847C1028.06 717.671 1033.17 717.077 1034.29 714.818C1035.6 712.181 1030.28 710.124 1025.78 709.072C1000.29 703.172 974.377 699.306 948.277 697.511C935.058 696.581 921.437 696.108 909.28 693.048C897.122 689.989 886.501 683.572 886.615 676.087C886.65 673.804 887.613 671.362 885.708 669.345C883.178 666.667 876.953 666.053 871.582 665.761C812.04 662.525 752.174 661.174 692.362 661.716C671.323 661.907 650.197 662.33 629.306 660.913C612.189 659.752 595.424 657.368 578.554 655.366C555.911 652.68 457.366 638.762 442.991 650.055C432.23 658.509 454.447 660.333 425.585 663.782C400.454 666.786 372.733 665.49 347.245 665.189Z" fill="#151D65" fill-opacity="0.15"/>
<path d="M711.426 626.579C711.426 626.579 746.117 695.223 716.593 695.223C687.069 695.223 315.063 696.699 304.729 677.509C297.489 664.063 301.481 616.199 304.52 588.744C305.11 583.408 307.722 578.501 311.819 575.032C315.916 571.563 321.187 569.795 326.547 570.092C407.001 574.533 707.567 590.99 706.26 588.936C703.676 584.876 705.522 585.983 705.522 585.983C705.522 585.983 717.331 623.627 711.426 626.579Z" fill="#3F3D56"/>
<path opacity="0.1" d="M303.782 588.744C304.372 583.408 306.984 578.501 311.081 575.032C315.178 571.563 320.449 569.795 325.809 570.092C406.263 574.533 706.829 590.99 705.522 588.936C702.938 584.876 704.784 585.983 704.784 585.983C704.784 585.983 707.419 594.387 709.578 603.564C709.272 603.534 709.043 603.822 710.04 605.576C710.129 605.971 710.216 606.367 710.302 606.763C698.264 607.952 409.577 592.145 330.976 587.807C325.615 587.509 320.345 589.277 316.248 592.746C312.151 596.216 309.539 601.123 308.949 606.459C306.689 626.871 303.905 658.562 305.599 679.004C304.946 678.649 304.393 678.135 303.991 677.509C296.751 664.063 300.743 616.199 303.782 588.744Z" fill="black"/>
<path d="M670.078 523.706C673.924 522.527 678.791 521.005 678.352 518.524C678.119 517.205 676.354 516.176 675.076 515.071C672.612 512.94 671.947 509.938 674.594 507.88C677.241 505.822 683.617 505.547 685.952 507.725C687.154 508.845 687.081 510.25 687.702 511.516C689.637 515.463 697.466 517.197 704.116 518.73C710.767 520.264 718.208 523.118 717.583 527.202C716.901 531.657 706.641 535.609 710.769 539.408C712.266 540.786 715.415 541.555 716.085 543.13C716.557 544.239 715.61 545.367 714.69 546.38L708.157 553.578C705.557 556.441 702.879 559.558 703.75 562.745C705.475 569.064 719.502 571.481 730.619 570.771C734.691 570.511 739.476 570.155 742.273 571.866C744.429 573.185 744.426 575.238 743.709 576.996C741.865 581.52 735.964 585.438 728.413 587.153C736.876 588.822 740.2 595.861 734.357 599.739C737.701 600.889 741.316 600.993 744.721 600.036C747.611 602.697 745.912 606.348 742.246 608.676C738.58 611.003 733.387 612.313 728.359 613.556L733.065 617.956C729.659 620.616 722.306 619.679 717.346 617.998C712.387 616.317 707.006 614.06 701.45 614.939C696.239 615.764 692.297 619.24 686.991 618.645C682.879 618.183 680.923 615.541 679.641 613.26L674.196 603.564C666.443 604.777 658.293 599.465 661.406 595.229C652.731 596.161 644.192 590.527 647.04 585.751C642.42 589.314 639.168 593.454 637.576 597.795C636.865 599.734 636.432 601.785 634.496 603.429C633.229 604.371 631.763 605.007 630.21 605.288C628.657 605.569 627.06 605.487 625.544 605.048C627.126 608.116 628.407 611.694 625.157 614.297C621.906 616.9 612.525 616.161 612.94 612.972C607.982 615.102 602.427 617.104 596.232 617.263C590.037 617.422 583.257 615.064 582.693 611.534C573.962 614.413 564.828 615.883 555.635 615.889C554.853 613.526 549.391 612.762 545.308 613.34C541.225 613.917 537.437 615.305 533.231 615.307C529.025 615.309 524.501 612.778 526.655 610.712C517.798 612.565 508.705 613.024 499.706 612.072C491.218 611.171 483.173 609.029 474.577 608.567C465.857 608.036 457.127 609.415 448.995 612.607C446.177 613.789 442.675 615.276 439.579 614.349C437.823 613.824 436.969 612.689 435.776 611.783C430.642 607.888 420.143 608.635 412.043 610.167C403.943 611.698 394.52 613.542 387.423 610.835C384.745 609.814 382.772 608.235 379.923 607.378C369.719 604.306 357.505 612.177 346.674 609.912C343.147 609.175 340.285 607.411 336.549 607.193C329.921 606.807 325.542 611.298 319.098 612.265C312.413 613.267 305.165 609.199 306.796 605.359C300.37 605.502 293.963 604.611 287.819 602.722L290.855 597.259C283.292 597.137 277.728 591.715 281.232 587.882C273.648 586.437 267.651 582.55 266.092 578.068C264.533 573.585 267.473 568.682 273.514 565.689C277.079 563.922 281.761 562.68 283.799 560.247C285.267 558.496 285.053 556.458 285.624 554.543C286.873 550.352 292.289 546.651 299.284 545.208C302.322 544.582 305.647 544.344 308.398 543.376C311.149 542.408 313.136 540.312 311.548 538.704C310.708 537.853 309.089 537.352 308.043 536.579C303.8 533.446 311.075 529.48 317.286 527.721L302.454 527.236L299.27 512.795C305.138 517.568 320.36 516.564 324.173 511.153C319.409 512.716 313.019 510.717 310.689 507.873C308.36 505.029 308.932 501.721 309.554 498.6C309.613 497.825 309.871 497.079 310.305 496.433C310.738 495.788 311.331 495.266 312.026 494.918C313.478 494.226 315.791 493.937 316.267 492.892C316.753 491.825 314.875 490.882 314.596 489.792C314.061 487.698 318.874 486.775 322.124 485.763C329.792 483.374 333.505 476.66 342.229 476.879C350.885 477.095 353.305 483.704 353.311 488.658C353.317 493.611 356.246 500.236 364.91 500.145C368.369 500.109 371.385 498.865 374.148 497.674L398.96 486.973C402.238 485.448 405.649 484.225 409.15 483.32C414.154 482.152 419.683 482.014 425.085 481.891L459.794 481.102C461.562 480.964 463.341 481.116 465.059 481.555C466.882 482.164 467.768 483.364 468.866 484.395C473.699 488.933 485.063 490.71 493.264 488.211C495.438 487.548 497.386 486.635 499.69 486.135C506.948 484.563 514.563 487.472 522.104 488.524C534.465 490.247 549.825 487.281 558.736 492.472C561.707 494.203 563.283 496.57 566.037 498.415C568.79 500.259 573.758 501.51 577.23 500.117C576.794 503.503 576.396 507.035 578.688 510.167C580.98 513.298 586.858 515.854 592.633 515.064C595.697 514.254 595.456 511.678 594.006 509.935C592.557 508.191 590.334 506.41 591.056 504.524C591.773 502.654 595.054 501.566 597.507 500.262C599.96 498.958 601.597 496.487 598.991 495.283C600.747 493.026 607.058 493.302 609.834 495.194C612.61 497.086 612.887 499.751 613.19 502.215C613.493 504.679 614.152 507.378 617.369 509.026C622.85 511.836 633.374 510.378 637.009 514.039C638.164 515.201 638.232 516.604 638.893 517.886C641.842 523.611 654.574 525.094 664.981 525.561C665.2 526.752 665.249 527.968 665.126 529.173C661.566 527.632 667.498 524.497 670.078 523.706Z" fill="#61AB43"/>
<path opacity="0.1" d="M309.554 517.167C308.932 520.287 308.36 523.595 310.689 526.439C311.035 526.85 311.426 527.22 311.855 527.543C308.722 527.441 305.588 527.338 302.454 527.236C301.393 522.422 300.331 517.609 299.27 512.795C301.701 514.773 305.737 515.755 309.903 515.847C309.754 516.278 309.638 516.719 309.554 517.167V517.167Z" fill="black"/>
<path opacity="0.1" d="M306.816 534.176C307.186 532.224 310.405 530.243 314.008 528.827C317.18 530.334 320.788 530.651 324.173 529.719C321.543 533.451 313.488 535.086 306.816 534.176Z" fill="black"/>
<path opacity="0.1" d="M302.211 544.698C302.292 545.066 302.373 545.434 302.454 545.802C307.398 545.964 312.342 546.125 317.286 546.287C311.075 548.046 303.8 552.012 308.043 555.145C309.089 555.918 310.708 556.419 311.548 557.27C313.136 558.878 311.149 560.975 308.398 561.942C305.647 562.91 302.322 563.148 299.284 563.775C292.289 565.218 286.873 568.918 285.624 573.109C285.053 575.024 285.267 577.062 283.799 578.814C281.761 581.246 277.079 582.489 273.514 584.255C273.17 584.425 272.84 584.603 272.517 584.786C269.293 582.963 266.976 580.612 266.092 578.068C264.533 573.585 267.473 568.682 273.514 565.689C277.079 563.922 281.761 562.68 283.799 560.247C285.267 558.496 285.053 556.458 285.624 554.543C286.873 550.352 292.289 546.651 299.284 545.208C300.24 545.011 301.225 544.853 302.211 544.698Z" fill="black"/>
<path opacity="0.1" d="M736.755 611.197C735.601 608.738 732.651 606.555 728.413 605.719C732.463 604.878 736.278 603.157 739.589 600.678C741.322 600.729 743.053 600.512 744.721 600.036C747.611 602.697 745.912 606.348 742.246 608.676C740.517 609.722 738.675 610.567 736.755 611.197V611.197Z" fill="black"/>
<path opacity="0.1" d="M710.593 539.226C708.481 538.436 706.317 537.791 704.116 537.297C697.466 535.763 689.637 534.03 687.702 530.082C687.081 528.817 687.154 527.411 685.952 526.291C683.617 524.113 677.241 524.388 674.594 526.446C671.947 528.505 672.612 531.506 675.076 533.637C676.354 534.743 678.119 535.771 678.352 537.09C678.79 539.572 673.924 541.094 670.078 542.272C668.268 542.855 666.573 543.749 665.07 544.913C665.038 544.65 665.006 544.388 664.981 544.127C654.574 543.66 641.842 542.177 638.893 536.453C638.232 535.17 638.164 533.768 637.009 532.605C633.374 528.945 622.85 530.403 617.369 527.593C614.152 525.944 613.492 523.245 613.19 520.781C612.887 518.318 612.61 515.653 609.834 513.76C607.058 511.868 600.747 511.593 598.991 513.849C601.597 515.053 599.96 517.524 597.507 518.828C595.054 520.132 591.773 521.22 591.056 523.091C590.333 524.976 592.557 526.758 594.006 528.501C595.456 530.245 595.697 532.82 592.632 533.631C586.858 534.42 580.98 531.865 578.688 528.733C576.396 525.602 576.793 522.069 577.23 518.684C573.757 520.077 568.79 518.826 566.036 516.981C563.283 515.136 561.707 512.77 558.736 511.039C549.825 505.847 534.465 508.813 522.104 507.09C514.563 506.039 506.948 503.129 499.69 504.702C497.386 505.201 495.438 506.115 493.264 506.777C485.063 509.277 473.699 507.499 468.866 502.961C467.768 501.93 466.882 500.731 465.059 500.122C463.341 499.683 461.562 499.53 459.794 499.669C448.224 499.932 436.654 500.195 425.085 500.458C419.683 500.58 414.154 500.718 409.149 501.886C405.649 502.791 402.238 504.014 398.96 505.539C390.689 509.106 382.418 512.673 374.147 516.24C371.385 517.432 368.369 518.676 364.909 518.712C356.246 518.802 353.317 512.178 353.311 507.224C353.305 502.271 350.885 495.662 342.229 495.445C333.505 495.227 329.792 501.94 322.124 504.329C318.874 505.342 314.061 506.264 314.596 508.358C314.844 509.33 316.358 510.185 316.342 511.114C314.183 510.605 312.219 509.479 310.689 507.873C308.36 505.029 308.932 501.721 309.554 498.601C309.613 497.825 309.871 497.079 310.305 496.433C310.738 495.788 311.331 495.266 312.026 494.918C313.478 494.226 315.791 493.938 316.267 492.892C316.753 491.826 314.875 490.882 314.596 489.792C314.061 487.698 318.874 486.775 322.124 485.763C329.792 483.374 333.505 476.66 342.229 476.879C350.885 477.095 353.305 483.704 353.311 488.658C353.317 493.611 356.246 500.236 364.909 500.145C368.369 500.109 371.385 498.865 374.147 497.674C382.418 494.107 390.689 490.54 398.96 486.973C402.238 485.448 405.649 484.225 409.149 483.32C414.154 482.152 419.683 482.014 425.085 481.891C436.654 481.628 448.224 481.365 459.794 481.102C461.562 480.964 463.341 481.117 465.059 481.555C466.882 482.164 467.768 483.364 468.866 484.395C473.699 488.933 485.063 490.71 493.264 488.211C495.438 487.548 497.386 486.635 499.69 486.135C506.948 484.563 514.563 487.472 522.104 488.524C534.465 490.247 549.825 487.281 558.736 492.473C561.707 494.203 563.283 496.57 566.036 498.415C568.79 500.259 573.757 501.51 577.23 500.118C576.793 503.503 576.396 507.035 578.688 510.167C580.98 513.298 586.858 515.854 592.632 515.064C595.697 514.254 595.456 511.678 594.006 509.935C592.557 508.191 590.333 506.41 591.056 504.525C591.773 502.654 595.054 501.566 597.507 500.262C599.96 498.958 601.597 496.487 598.991 495.283C600.747 493.027 607.058 493.302 609.834 495.194C612.61 497.087 612.887 499.751 613.19 502.215C613.492 504.679 614.152 507.378 617.369 509.026C622.85 511.836 633.374 510.379 637.009 514.039C638.164 515.201 638.232 516.604 638.893 517.886C641.842 523.611 654.574 525.094 664.981 525.561C665.006 525.821 665.038 526.084 665.07 526.347C666.573 525.182 668.268 524.288 670.078 523.706C673.924 522.527 678.79 521.005 678.352 518.524C678.119 517.205 676.354 516.177 675.076 515.071C672.612 512.94 671.947 509.938 674.594 507.88C677.241 505.822 683.617 505.547 685.952 507.725C687.154 508.845 687.081 510.25 687.701 511.516C689.636 515.463 697.466 517.197 704.116 518.731C710.767 520.264 718.208 523.118 717.583 527.202C716.912 531.586 706.976 535.483 710.593 539.226Z" fill="black"/>
<path opacity="0.1" d="M728.413 587.153C730.241 587.49 731.989 588.174 733.56 589.168C732.564 589.212 731.572 589.277 730.619 589.338C719.502 590.048 705.475 587.63 703.75 581.312C702.879 578.124 705.557 575.008 708.157 572.144C709.202 570.993 710.247 569.842 711.291 568.69C716.731 570.539 724.163 571.184 730.619 570.771C734.69 570.511 739.476 570.155 742.273 571.866C744.429 573.185 744.426 575.238 743.709 576.996C741.865 581.52 735.964 585.438 728.413 587.153Z" fill="black"/>
<path d="M501.986 558.26C440.839 558.26 391.27 525.545 391.27 485.188C391.27 444.831 440.839 412.115 501.986 412.115C563.133 412.115 612.702 444.831 612.702 485.188C612.702 525.545 563.133 558.26 501.986 558.26Z" fill="#EA565C"/>
<path opacity="0.2" d="M539.63 480.021C539.63 480.021 589.821 485.188 575.059 463.783C560.297 442.377 541.844 434.996 532.987 440.901C524.13 446.806 520.439 463.044 521.915 463.044C523.391 463.044 544.797 450.497 552.178 460.092C559.559 469.687 539.63 480.021 539.63 480.021Z" fill="white"/>
<path opacity="0.2" d="M496.14 482.113C496.14 482.113 454.693 510.888 479.837 517.512C504.981 524.137 523.79 517.717 526.663 507.467C529.537 497.217 521.76 482.492 520.639 483.454C519.519 484.416 511.453 507.88 499.602 505.407C487.751 502.935 496.14 482.113 496.14 482.113Z" fill="white"/>
<path opacity="0.2" d="M486.464 464.08C486.464 464.08 483.193 413.73 464.548 431.853C445.903 449.976 441.7 469.401 448.999 477.15C456.297 484.899 472.924 485.832 472.678 484.376C472.432 482.921 456.492 463.906 464.723 455.029C472.954 446.152 486.464 464.08 486.464 464.08Z" fill="white"/>
<path d="M635.584 552.355C574.437 552.355 524.868 519.64 524.868 479.283C524.868 438.926 574.437 406.21 635.584 406.21C696.731 406.21 746.3 438.926 746.3 479.283C746.3 519.64 696.731 552.355 635.584 552.355Z" fill="#EA565C"/>
<path opacity="0.2" d="M673.227 474.116C673.227 474.116 723.419 479.283 708.656 457.878C693.894 436.473 675.442 429.092 666.584 434.996C657.727 440.901 654.036 457.14 655.513 457.14C656.989 457.14 678.394 444.592 685.775 454.187C693.156 463.783 673.227 474.116 673.227 474.116Z" fill="white"/>
<path opacity="0.2" d="M629.738 476.208C629.738 476.208 588.291 504.983 613.435 511.607C638.578 518.232 657.387 511.812 660.261 501.562C663.135 491.312 655.357 476.588 654.237 477.549C653.117 478.511 645.05 501.975 633.199 499.503C621.349 497.03 629.738 476.208 629.738 476.208Z" fill="white"/>
<path opacity="0.2" d="M620.062 458.175C620.062 458.175 616.791 407.825 598.146 425.948C579.5 444.071 575.298 463.496 582.596 471.245C589.895 478.995 606.521 479.927 606.275 478.471C606.029 477.016 590.089 458.001 598.32 449.124C606.551 440.247 620.062 458.175 620.062 458.175Z" fill="white"/>
<path opacity="0.1" d="M577.966 417.095C553.85 430.499 538.523 450.571 538.523 473.009C538.523 513.366 588.092 546.082 649.239 546.082C670.191 546.082 689.782 542.239 706.487 535.566C687.228 546.271 662.365 552.725 635.215 552.725C574.068 552.725 524.498 520.009 524.498 479.652C524.498 453.123 545.919 429.898 577.966 417.095Z" fill="black"/>
<path opacity="0.1" d="M444.369 422.262C420.253 435.666 404.925 455.738 404.925 478.176C404.925 518.533 454.494 551.248 515.641 551.248C536.593 551.248 556.185 547.406 572.89 540.733C553.63 551.438 528.768 557.891 501.617 557.891C440.47 557.891 390.901 525.176 390.901 484.819C390.901 458.29 412.322 435.064 444.369 422.262Z" fill="black"/>
<path d="M702.869 465.284C702.869 465.284 607.653 363.425 374.411 405.497C190.031 438.756 341.438 495.999 412.967 518.523C433.72 525.055 455.218 528.926 476.946 530.042C557.641 534.198 760.614 537.912 702.869 465.284Z" fill="#714B4F"/>
<path opacity="0.1" d="M412.967 495.642C433.72 502.174 455.218 506.045 476.946 507.161C542.317 510.527 687.93 513.602 710.176 476.036C738.268 536.755 553.124 533.227 476.946 529.304C455.218 528.188 433.72 524.317 412.967 517.785C360.538 501.275 265.198 466.112 290.629 435.414C307.751 459.505 372.893 483.022 412.967 495.642Z" fill="black"/>
<path opacity="0.1" d="M499.52 405.866L473.686 456.796" stroke="black" stroke-width="2" stroke-miterlimit="10"/>
<path opacity="0.1" d="M579.236 424.319L557.093 467.129" stroke="black" stroke-width="2" stroke-miterlimit="10"/>
<path opacity="0.1" d="M453.019 405.866L418.328 456.796" stroke="black" stroke-width="2" stroke-miterlimit="10"/>
<path opacity="0.1" d="M579.236 471.558L346.732 442.034" stroke="black" stroke-width="2" stroke-miterlimit="10"/>
<path opacity="0.1" d="M355.589 415.462L339.351 438.343" stroke="black" stroke-width="2" stroke-miterlimit="10"/>
<path opacity="0.1" d="M624.998 442.034L614.665 463.439" stroke="black" stroke-width="2" stroke-miterlimit="10"/>
<path d="M590.292 372.691C590.292 372.691 377.969 371.73 376.021 369.809C374.073 367.888 329.271 366.87 320.505 379.357C311.739 391.845 308.818 397.608 320.505 399.529C332.193 401.45 716.907 598.366 716.907 598.366C716.907 598.366 738.334 600.287 727.621 579.155C716.907 558.023 590.292 372.691 590.292 372.691Z" fill="#F6C964"/>
<path d="M501.153 460.522C501.153 468.471 539.486 487.832 586.773 487.832C634.06 487.832 672.394 468.471 672.394 460.522C672.394 452.573 634.06 449.45 586.773 449.45C539.486 449.45 501.153 452.573 501.153 460.522Z" fill="#61AB43"/>
<path d="M586.773 474.546C539.486 474.546 501.153 468.102 501.153 460.153C501.153 452.204 539.486 445.76 586.773 445.76C634.06 445.76 672.394 452.204 672.394 460.153C672.394 468.102 634.06 474.546 586.773 474.546Z" fill="#61AB43"/>
<path d="M397.818 447.236C397.818 455.185 436.151 474.546 483.438 474.546C530.725 474.546 569.059 455.185 569.059 447.236C569.059 439.287 530.725 436.164 483.438 436.164C436.151 436.164 397.818 439.287 397.818 447.236Z" fill="#61AB43"/>
<path d="M483.438 461.26C436.151 461.26 397.818 454.816 397.818 446.867C397.818 438.918 436.151 432.474 483.438 432.474C530.725 432.474 569.059 438.918 569.059 446.867C569.059 454.816 530.725 461.26 483.438 461.26Z" fill="#61AB43"/>
<path d="M294.483 433.95C294.483 441.899 332.816 461.26 380.103 461.26C427.39 461.26 465.724 441.899 465.724 433.95C465.724 426.001 427.39 422.878 380.103 422.878C332.816 422.878 294.483 426.001 294.483 433.95Z" fill="#61AB43"/>
<path d="M380.103 447.974C332.816 447.974 294.483 441.53 294.483 433.581C294.483 425.632 332.816 419.188 380.103 419.188C427.39 419.188 465.724 425.632 465.724 433.581C465.724 441.53 427.39 447.974 380.103 447.974Z" fill="#61AB43"/>
<path d="M695.427 438.039C695.427 438.039 730.642 432.306 712.625 403.644C694.608 374.981 688.549 342.85 680.686 335.672C671.897 327.647 490.477 186.938 349.141 342.64C334.168 359.332 321.996 378.338 313.098 398.921C311.389 402.813 309.504 406.305 307.661 408.148C301.929 413.88 297.015 430.259 307.661 438.448C318.307 446.638 631.96 478.576 695.427 438.039Z" fill="#3F3D56"/>
<path d="M530.412 318.884C532.582 320.393 535.141 321.246 537.782 321.341C541.853 321.341 545.153 320.241 545.153 318.884C545.153 317.527 541.853 316.427 537.782 316.427C535.141 316.522 532.582 317.375 530.412 318.884V318.884Z" fill="#F2F2F2"/>
<path d="M429.2 325.998C431.722 326.79 434.418 326.84 436.968 326.142C440.853 324.927 443.674 322.892 443.268 321.597C442.863 320.302 439.386 320.237 435.501 321.453C433.008 322.332 430.821 323.91 429.2 325.998Z" fill="#F2F2F2"/>
<path d="M640.735 343.445C640.12 340.874 638.779 338.535 636.871 336.705C633.834 333.995 630.639 332.619 629.736 333.631C628.833 334.644 630.563 337.661 633.6 340.371C635.634 342.059 638.111 343.126 640.735 343.445Z" fill="#F2F2F2"/>
<path d="M513.8 323.791C513.185 321.22 511.844 318.88 509.936 317.051C506.899 314.341 503.704 312.964 502.801 313.977C501.898 314.989 503.628 318.007 506.665 320.717C508.699 322.405 511.176 323.472 513.8 323.791Z" fill="#F2F2F2"/>
<path d="M945.004 573.89C945.004 628.514 910.737 672.714 868.388 672.714Z" fill="#46455B"/>
<path d="M868.389 672.714C868.389 617.477 830.148 572.78 782.89 572.78Z" fill="#151D65"/>
<path d="M917.245 578.842C917.245 630.728 895.393 672.714 868.388 672.714Z" fill="#151D65"/>
<path d="M868.389 672.714C868.389 602.133 824.188 545.021 769.565 545.021Z" fill="#46455B"/>
<path d="M884.506 673.411C884.506 673.411 873.641 673.076 870.367 670.744C867.092 668.412 853.653 665.628 852.84 669.368C852.028 673.107 836.512 687.967 848.779 688.066C861.046 688.165 877.282 686.155 880.55 684.164C883.818 682.174 884.506 673.411 884.506 673.411Z" fill="#A8A8A8"/>
<path opacity="0.2" d="M848.56 686.764C860.827 686.863 877.063 684.853 880.331 682.863C882.82 681.347 883.812 675.906 884.144 673.396C884.374 673.406 884.506 673.411 884.506 673.411C884.506 673.411 883.818 682.174 880.55 684.164C877.282 686.155 861.046 688.165 848.779 688.066C845.238 688.037 844.015 686.778 844.082 684.912C844.574 686.039 845.924 686.743 848.56 686.764Z" fill="black"/>
<path d="M220.759 679.672L237.099 680.693L236.962 642.061H219.228L220.759 679.672Z" fill="#EEB489"/>
<path d="M237.409 668.699C237.409 668.699 269.233 681.504 288.47 685.554C293.655 686.646 292.008 697.21 292.008 697.21L219.133 694.962C217.943 694.936 216.956 694.044 216.82 692.861C216.333 688.64 215.587 677.199 218.852 673.26C219.508 672.468 221.058 673.169 222.495 673.66C224.091 674.204 226.784 682.235 236.524 674.261C237.436 673.514 236.346 669.743 237.409 668.699Z" fill="#F2A600"/>
<path d="M169.272 673.073H183.427L183.966 642.572H167.427L169.272 673.073Z" fill="#EEB489"/>
<path d="M213.866 653.207H244.804V414.019H216.452L213.866 653.207Z" fill="#D2D2D2"/>
<path d="M163.228 650.935L191.58 650.935L191.58 414.019L163.228 414.019L163.228 650.935Z" fill="#D2D2D2"/>
<path d="M163.657 437.151L234.404 437.151L234.404 414.019L163.657 414.019L163.657 437.151Z" fill="#D2D2D2"/>
<path d="M192.372 700.978H159.538C158.481 700.978 157.624 700.121 157.624 699.063V693.66C157.624 686.152 163.711 680.065 171.219 680.065H180.691C188.2 680.065 194.287 686.152 194.287 693.66V699.063C194.287 700.121 193.429 700.978 192.372 700.978Z" fill="#0F0F23"/>
<path d="M184.814 672.325C183.19 671.058 181.846 668.563 182.418 663.67L164.805 664.411C164.805 664.411 170.326 675.384 163.009 679.047C159.182 680.962 158.274 684.999 157.953 694.403C157.631 703.806 191.54 694.403 191.54 694.403L189.98 681.404C189.529 677.642 187.55 674.459 184.814 672.325Z" fill="#0F0F23"/>
<path d="M150.72 209.825C150.72 209.825 152.612 199.579 153.997 198.02C155.382 196.46 166.696 191.657 166.156 196.775C165.616 201.893 158.654 214.474 153.614 214.98C148.573 215.486 150.72 209.825 150.72 209.825Z" fill="#231F20"/>
<path d="M134.266 215.012C134.266 215.012 100.125 263.967 94.5076 289.583C92.9666 296.611 107.574 306.932 114.295 309.5L158.193 299.254L159.052 256.549L128.337 275.094L145.763 222.998L134.266 215.012Z" fill="#EEB489"/>
<path d="M236.449 213.062C245.175 213.301 252.47 205.414 252.742 195.447C253.014 185.479 246.161 177.206 237.435 176.967L236.449 213.062Z" fill="#427BFF"/>
<path d="M234.607 215.624L235.363 215.645C237.462 215.702 239.209 214.047 239.267 211.949L240.188 178.233C240.246 176.134 238.591 174.386 236.492 174.329L235.736 174.308C233.637 174.251 231.89 175.906 231.832 178.004L230.911 211.72C230.853 213.819 232.508 215.567 234.607 215.624Z" fill="#0E0F25"/>
<path d="M236.295 172.888C236.295 172.888 239.997 185.011 237.188 188.524C234.38 192.037 232.499 195.036 232.499 195.036V172.122L236.295 172.888Z" fill="#F2A600"/>
<path d="M260.246 435.328L261.835 369.792L251.922 321.247L274.124 315.115L279.708 362.348L272.532 437.016L260.246 435.328Z" fill="#EEB489"/>
<path d="M245.878 330.701C223.598 299.179 226.467 293.531 225.907 292.991C230.139 297.077 225.907 243.927 225.907 243.927C228.279 244.649 230.987 245.667 233.813 246.868C243.977 251.192 255.657 257.897 258.644 261.772C264.33 269.148 279.351 304.498 283.947 321.604L245.878 330.701Z" fill="#0E0F25"/>
<path d="M136.763 320.669L134.291 268.601L160.091 251.272L153.614 321.754L136.763 320.669Z" fill="#0E0F25"/>
<path d="M187.012 239.813C179.922 241.612 160.091 251.272 160.091 251.272L151.474 277.793L154.729 419.105H254.298L248.934 279.2C248.934 279.2 247.339 262.723 244.404 259.489C233.116 247.051 227.08 242.65 215.927 240.387C204.774 238.124 194.02 238.034 187.012 239.813Z" fill="#0E0F25"/>
<path d="M197.664 251.83C200.286 252.405 203.029 252.174 205.57 251.309C208.415 250.341 211.891 248.492 211.891 245.243V224.393H191.974V245.243C191.974 249.215 194.3 251.093 197.664 251.83Z" fill="#EEB489"/>
<path d="M220.198 245.828C220.198 245.828 217.788 258.865 200.686 257.176C183.585 255.487 183.674 243.927 183.674 243.927" stroke="#427BFF" stroke-width="4" stroke-miterlimit="10" stroke-linecap="round"/>
<path d="M211.891 228.878L193.721 229.065C193.721 229.065 209.04 241.104 211.891 239.152V228.878Z" fill="#231F20"/>
<path d="M203.288 230.957H213.818C219.62 231.088 226.525 226.829 232.304 215.347C233.413 213.145 234.05 210.729 234.185 208.268L235.686 180.98C235.686 168.902 225.895 159.112 213.818 159.112H199.561C187.484 159.112 177.694 168.902 177.694 180.98V205.362C177.694 219.498 189.153 230.957 203.288 230.957Z" fill="#EEB489"/>
<path d="M250.129 156.562C250.61 152.11 251.378 145.215 246.746 142.064C242.362 139.082 235.509 140.658 232.731 144.239C230.253 147.433 231.263 151.906 230.556 151.971C229.455 152.072 230.116 140.912 223.791 136.265C219.829 133.354 213.239 133.081 210.501 136.023C205.946 140.918 209.732 147.954 208.702 148.364C207.549 148.822 206.331 136.774 195.52 133.848C188.701 132.003 179.982 136.377 179.572 140.614C178.958 146.952 196.788 154.442 196.969 154.146C197.128 153.885 186.07 143.715 176.431 146.172C172.44 147.189 168.802 150.342 167.49 154.387C165.393 160.854 169.278 168.235 174.256 170.335C177.208 171.58 178.281 170.016 185.551 169.65C191.694 169.34 209.793 178.282 215.358 179.398C221.9 180.71 235.622 178.753 243.865 171.099C249.081 166.256 249.828 159.345 250.129 156.562Z" fill="#F2A600"/>
<path d="M191.098 169.675C191.098 169.675 179.535 187.599 180.231 194.977C180.563 198.496 175.88 183.739 172.363 185.926C170.37 180.526 168.32 167.91 174.548 166.75C182.631 165.245 191.098 169.675 191.098 169.675Z" fill="#F2A600"/>
<path d="M230.011 189.898L220.136 188.938" stroke="#231F20" stroke-width="3.78559" stroke-miterlimit="10" stroke-linecap="round"/>
<path d="M191.098 191.544L200.183 189.898" stroke="#231F20" stroke-width="3.78559" stroke-miterlimit="10" stroke-linecap="round"/>
<path d="M212.737 193.048C215.387 199.717 216.268 204.492 216.603 207.305C216.756 208.585 216.89 210.256 215.878 211.171C214.137 212.746 210.334 210.877 209.958 210.688" stroke="#231F20" stroke-width="1.26186" stroke-miterlimit="10" stroke-linecap="round"/>
<path d="M204.116 217.179C204.045 219.998 206.85 223.26 208.801 223.48C211.263 223.757 215.4 220.631 216.995 217.902L204.116 217.179Z" fill="#F1F2F2"/>
<path d="M223.439 198.525C224.04 198.525 224.526 198.038 224.526 197.438C224.526 196.837 224.04 196.351 223.439 196.351C222.839 196.351 222.352 196.837 222.352 197.438C222.352 198.038 222.839 198.525 223.439 198.525Z" fill="#231F20"/>
<path d="M200.148 198.525C200.748 198.525 201.235 198.038 201.235 197.438C201.235 196.837 200.748 196.351 200.148 196.351C199.547 196.351 199.061 196.837 199.061 197.438C199.061 198.038 199.547 198.525 200.148 198.525Z" fill="#231F20"/>
<path d="M175.725 210.72C167.035 211.546 159.225 204.169 158.282 194.243C157.338 184.317 163.618 175.6 172.308 174.774L175.725 210.72Z" fill="#427BFF"/>
<path d="M177.736 213.152L176.983 213.224C174.893 213.422 173.037 211.889 172.839 209.799L169.646 176.222C169.448 174.132 170.981 172.277 173.071 172.078L173.824 172.006C175.914 171.808 177.769 173.341 177.968 175.431L181.16 209.008C181.359 211.098 179.826 212.953 177.736 213.152Z" fill="#0E0F25"/>
<path d="M166.152 183.458C164.771 183.458 163.652 182.339 163.652 180.958V162.863L164.809 162.127C165.649 161.592 187.776 146.865 208.846 146.865C210.227 146.865 207.354 150.767 207.354 150.767C207.354 150.767 205.491 152.984 204.11 152.984C187.23 152.984 173.117 163.047 168.652 165.649V180.958C168.652 182.339 167.533 183.458 166.152 183.458Z" fill="#0E0F25"/>
<path d="M194.317 285.138C198.931 285.138 202.685 288.892 202.685 293.506C202.685 298.12 198.931 301.873 194.317 301.873C189.704 301.873 185.95 298.12 185.95 293.506C185.95 288.892 189.704 285.138 194.317 285.138ZM194.317 281.138C187.487 281.138 181.95 286.675 181.95 293.506C181.95 300.336 187.487 305.873 194.317 305.873C201.147 305.873 206.685 300.336 206.685 293.506C206.685 286.675 201.147 281.138 194.317 281.138Z" fill="#F2A600"/>
<path d="M209.953 307.118C216.784 307.118 222.321 301.581 222.321 294.75C222.321 287.92 216.784 282.383 209.953 282.383C203.123 282.383 197.586 287.92 197.586 294.75C197.586 301.581 203.123 307.118 209.953 307.118Z" fill="#427BFF"/>
<path d="M131.21 220.778C131.558 220.442 141.226 190.982 141.226 190.982C141.226 190.982 160.334 175.362 164.237 175.724C168.486 176.119 163.98 185.876 166.904 187.98C168.815 189.354 163.781 194.245 160.06 197.471C157.861 199.378 156.838 202.305 157.382 205.165V205.165C158.429 210.674 156.793 216.352 152.977 220.46L144.775 225.376L131.21 220.778Z" fill="#EEB489"/>
<path d="M261.246 423.778C260.82 423.817 260.424 424.005 260.126 424.313C258.314 426.189 251.781 433.124 251.37 435.995C250.894 439.329 239.579 448.5 245.177 450.525C247.641 451.416 253.752 442.426 256.373 442.902C258.829 443.349 256.384 459.288 253.558 465.401C253.169 466.24 253.505 467.276 254.33 467.694C258.125 469.615 261.375 459.1 261.375 459.1L259.602 464.575C259.081 466.186 260.89 467.577 262.292 466.627C264.09 465.409 266.087 463.055 267.211 458.505C267.211 458.505 267.316 462.554 269.236 462.316C273.469 461.791 275.487 438.958 275.65 434.81C275.665 434.434 273.885 424.814 273.676 424.5L268.874 424.02C268.51 423.473 267.875 423.169 267.22 423.229L261.246 423.778Z" fill="#EEB489"/>
<path d="M254.922 177.448L265.81 171.561" stroke="#0E0F25" stroke-miterlimit="10" stroke-linecap="round"/>
<path d="M259.644 191.506L271.977 190.458" stroke="#0E0F25" stroke-miterlimit="10" stroke-linecap="round"/>
<path d="M256.812 209.072L268.898 211.742" stroke="#0E0F25" stroke-miterlimit="10" stroke-linecap="round"/>
<path d="M143.647 164.601L135.433 155.342" stroke="#0E0F25" stroke-miterlimit="10" stroke-linecap="round"/>
<path d="M134.397 176.193L123.168 170.986" stroke="#0E0F25" stroke-miterlimit="10" stroke-linecap="round"/>
<path d="M131.043 193.667L118.773 192.037" stroke="#0E0F25" stroke-miterlimit="10" stroke-linecap="round"/>
</svg>
