<svg width="635" height="416" viewBox="0 0 635 416" fill="none" xmlns="http://www.w3.org/2000/svg">
<path opacity="0.1" d="M361.969 68.5802C322.029 67.2012 283.991 54.3343 247.667 40.2608C211.344 26.1873 175.367 10.5993 136.384 3.14385C111.311 -1.65199 82.6336 -2.33535 62.4356 11.061C42.9904 23.9894 36.7083 46.2448 33.3327 66.9119C30.7902 82.4629 29.2968 98.8328 36.2578 113.393C41.0959 123.502 49.6738 131.997 55.6104 141.681C76.265 175.369 61.6642 216.913 39.2878 249.806C28.7969 265.234 16.609 279.973 8.50632 296.379C0.403657 312.786 -3.3422 331.649 3.7484 348.432C10.7711 365.054 27.5133 377.515 45.6502 386.288C82.4855 404.11 125.875 409.208 168.215 412.101C261.91 418.492 356.1 415.727 450.043 412.951C484.811 411.929 519.727 410.888 553.927 405.526C572.922 402.547 592.527 397.818 606.32 386.405C623.821 371.918 628.159 347.391 616.428 329.23C596.755 298.756 542.375 291.19 528.607 258.493C521.041 240.492 528.811 220.446 539.814 203.756C563.412 167.945 602.963 136.528 605.042 95.6007C606.474 67.4906 587.461 39.3373 558.062 26.0334C527.249 12.0891 484.514 13.8437 461.792 36.924C438.373 60.6631 397.237 69.8054 361.969 68.5802Z" fill="#151D65"/>
<path d="M305.279 303.501H280.479V346.183H237.926V303.501H150V273.215L240.321 140.24H280.479V269.694H305.279V303.501ZM237.926 269.694V234.759C237.926 228.937 238.16 220.485 238.63 209.404C239.1 198.323 239.476 191.89 239.757 190.106H238.63C235.154 197.806 230.974 205.319 226.089 212.644L188.327 269.694H237.926Z" fill="#151D65"/>
<path d="M464.362 243.211C464.362 279.179 458.444 305.802 446.608 323.081C434.866 340.36 416.736 349 392.218 349C368.452 349 350.51 340.079 338.392 322.236C326.368 304.393 320.356 278.052 320.356 243.211C320.356 206.868 326.227 180.104 337.969 162.919C349.711 145.64 367.794 137 392.218 137C415.984 137 433.927 146.015 446.044 164.046C458.256 182.076 464.362 208.465 464.362 243.211ZM363.614 243.211C363.614 268.473 365.775 286.597 370.096 297.585C374.511 308.478 381.885 313.925 392.218 313.925C402.363 313.925 409.691 308.384 414.2 297.303C418.709 286.222 420.963 268.191 420.963 243.211C420.963 217.95 418.662 199.825 414.059 188.838C409.55 177.757 402.27 172.216 392.218 172.216C381.979 172.216 374.652 177.757 370.237 188.838C365.822 199.825 363.614 217.95 363.614 243.211Z" fill="#151D65"/>
<path d="M635 303.501H610.2V346.183H567.647V303.501H479.721V273.215L570.042 140.24H610.2V269.694H635V303.501ZM567.647 269.694V234.759C567.647 228.937 567.882 220.485 568.351 209.404C568.821 198.323 569.197 191.89 569.479 190.106H568.351C564.876 197.806 560.695 205.319 555.811 212.644L518.048 269.694H567.647Z" fill="#151D65"/>
<path d="M32.5089 366.895H40.7394L41.203 353.289H31.5864L32.5089 366.895Z" fill="#EEB489"/>
<path d="M61.8352 366.895H70.0657L71.4518 353.289H61.8352V366.895Z" fill="#EEB489"/>
<path d="M58.6357 359.243L75.1209 359.243L75.1209 210.127L58.6357 210.127L58.6357 359.243Z" fill="#3F3D56"/>
<path d="M28.9952 359.243L45.4803 359.243L45.4803 210.127L28.9952 210.127L28.9952 359.243Z" fill="#3F3D56"/>
<path d="M28.9951 222.518L75.1208 222.518L75.1208 209.399L28.9951 209.399L28.9951 222.518Z" fill="#3F3D56"/>
<path d="M58.0269 359.417L77.4157 359.243L77.2581 349.829L58.0269 353.553V359.417Z" fill="#161F40"/>
<path d="M27.5433 359.243H46.9321L46.7745 349.829L27.5433 353.553V359.243Z" fill="#161F40"/>
<path d="M71.2499 296.157C69.803 294.476 67.9607 294.097 67.1286 294.752C66.3389 295.375 66.398 296.978 67.035 297.937C68.1368 299.595 71.3366 299.879 73.2169 298.312C74.9258 296.887 75.1183 294.289 74.2472 292.598C72.8724 289.929 68.9184 289.657 66.3793 290.537C63.7538 291.448 60.974 294.17 61.415 297.188C61.9931 301.142 67.5976 302.152 68.159 302.246C68.6054 302.32 73.1953 303 76.4952 299.529C79.167 296.719 79.0552 293.226 79.0242 292.598" stroke="#161F40" stroke-width="1.26186" stroke-miterlimit="10" stroke-linecap="round"/>
<path d="M33.9495 295.657C35.3965 293.976 37.2388 293.596 38.0708 294.252C38.8605 294.874 38.8015 296.478 38.1645 297.437C37.0626 299.095 33.8629 299.379 31.9825 297.811C30.2737 296.387 30.0811 293.789 30.9522 292.098C32.327 289.429 36.2811 289.156 38.8201 290.037C41.4457 290.948 44.2255 293.669 43.7844 296.687C43.2064 300.642 37.6019 301.652 37.0405 301.745C36.594 301.819 32.0042 302.5 28.7042 299.029C26.0325 296.219 26.1443 292.725 26.1753 292.098" stroke="#161F40" stroke-width="1.26186" stroke-miterlimit="10" stroke-linecap="round"/>
<path d="M70.6121 361.532C70.6121 361.532 86.9948 368.123 96.8976 370.208C99.567 370.77 98.719 376.209 98.719 376.209L61.2042 375.051C60.5916 375.038 60.0835 374.578 60.0133 373.97C59.7626 371.797 59.3789 365.907 61.0593 363.879C61.3972 363.472 62.195 363.832 62.9351 364.085C63.7562 364.365 65.1425 368.499 70.1566 364.394C70.6264 364.01 70.0649 362.069 70.6121 361.532Z" fill="#161F40"/>
<path d="M40.5581 361.506C40.5581 361.506 56.9214 368.146 66.8179 370.26C69.4857 370.829 68.6218 376.265 68.6218 376.265L31.1105 374.998C30.498 374.982 29.9912 374.522 29.9228 373.913C29.6785 371.739 29.312 365.849 30.9984 363.826C31.3375 363.419 32.1342 363.782 32.8736 364.037C33.6939 364.319 35.0681 368.458 40.0941 364.368C40.565 363.984 40.0093 362.041 40.5581 361.506Z" fill="#161F40"/>
<path d="M109.632 234.065L107.253 234.608L111.986 255.329L114.365 254.785L109.632 234.065Z" fill="#161F40"/>
<path d="M123.625 370.825C122.366 371.113 121.578 372.367 121.865 373.626L122.137 374.816C122.425 376.075 123.679 376.863 124.938 376.575C126.198 376.287 126.985 375.033 126.698 373.774L126.426 372.584C126.138 371.325 124.884 370.537 123.625 370.825Z" fill="#161F40"/>
<path d="M172.031 358.898C170.772 359.186 169.984 360.44 170.272 361.699L170.544 362.889C170.831 364.148 172.085 364.936 173.345 364.648C174.604 364.36 175.392 363.106 175.104 361.847L174.832 360.657C174.545 359.398 173.29 358.61 172.031 358.898Z" fill="#161F40"/>
<path d="M129.258 228.194L126.878 228.737L131.611 249.457L133.991 248.914L129.258 228.194Z" fill="#161F40"/>
<path d="M171.11 285.777L166.02 286.939L173.425 319.358L178.515 318.195L171.11 285.777Z" fill="#161F40"/>
<path d="M104.668 348.492L107.144 359.332C109.41 369.252 119.288 375.457 129.208 373.191L135.66 371.717C135.044 369.371 134.202 366.604 133.053 363.316C127.38 347.074 110.448 347.752 104.668 348.492Z" fill="#F1F2F2"/>
<path d="M178.688 330.676L162.257 258.742C159.991 248.823 150.113 242.618 140.193 244.884L101.898 253.631C91.9785 255.897 85.7738 265.775 88.0397 275.695L104.668 348.492C110.448 347.752 127.38 347.074 133.053 363.316C134.202 366.604 135.044 369.371 135.66 371.717L165.724 364.85C165.137 362.18 164.573 358.804 164.085 354.505C162.55 340.985 171.953 333.943 178.688 330.676Z" fill="#3F3D56"/>
<path d="M164.085 354.505C164.573 358.804 165.137 362.18 165.724 364.85L167.503 364.444C177.423 362.178 183.627 352.3 181.361 342.38L178.688 330.676C171.953 333.943 162.55 340.985 164.085 354.505Z" fill="#F1F2F2"/>
<path d="M130.006 225.989L105.32 231.628L106.203 235.494L130.889 229.855L130.006 225.989Z" fill="#161F40"/>
<path d="M135.42 295.734C144.132 295.734 151.195 288.671 151.195 279.959C151.195 271.247 144.132 264.185 135.42 264.185C126.708 264.185 119.646 271.247 119.646 279.959C119.646 288.671 126.708 295.734 135.42 295.734Z" fill="#868AAE"/>
<path d="M140.281 268.799C140.206 268.781 140.124 268.772 140.049 268.755L139.892 266.509L139.32 266.383L138.181 268.485C137.975 268.47 137.77 268.46 137.567 268.455C127.694 268.211 121.965 279.282 121.965 279.282C121.965 279.282 124.544 276.778 126.599 276.919C128.653 277.06 129.989 279.235 129.989 279.235C129.989 279.235 129.995 279.224 130.007 279.206C130.154 278.974 131.27 277.36 133.689 277.558C135.34 277.694 136.073 278.642 136.389 279.319L133.193 293.154L133.744 292.859L137.011 279.709C137.735 279.195 139.331 278.233 140.814 278.518C142.603 278.862 143.626 280.823 143.818 281.223C143.84 281.269 143.852 281.296 143.852 281.296C143.852 281.296 145.072 280.292 147.047 279.917C149.022 279.542 150.125 282.5 150.125 282.5C150.125 282.5 149.891 271.021 140.281 268.799Z" fill="#F1F2F2"/>
<path d="M129.903 332.091L129.784 331.782L129.736 331.657L129.56 331.201L129.038 329.845L129.043 329.843L128.951 329.525L128.918 329.535L128.359 328.081L128.193 327.651L127.766 326.541L127.709 326.383L127.705 326.384L127.082 324.763L126.885 324.252L126.754 323.914L126.7 323.759L126.695 323.76L125.776 321.373L125.721 321.216L125.716 321.217L125.45 320.526L125.223 319.935L124.824 318.899L124.701 318.579L124.456 317.945C124.779 317.923 125.098 317.867 125.406 317.761C126.463 317.396 127.343 316.41 127.36 315.291C127.379 314.025 126.331 312.957 125.162 312.468C124.259 312.089 123.251 311.977 122.283 312.123C122.227 311.804 122.102 311.502 121.88 311.25C121.315 310.611 120.396 310.455 119.552 310.338C119.418 310.319 119.282 310.301 119.146 310.284C119.07 309.646 118.626 309.047 118.054 308.712C117.279 308.257 116.33 308.172 115.415 308.099C114.681 308.04 113.93 307.987 113.195 308.056C113.163 307.421 112.974 306.785 112.608 306.21C111.732 304.833 110.117 304.216 108.61 304.538C108.441 304.005 108.373 303.454 108.436 302.877C108.563 301.71 109.328 299.935 110.944 300.29C111.03 300.309 111.302 300.15 111.186 300.125C110.175 299.903 109.27 300.4 108.717 301.251C108.064 302.258 107.964 303.495 108.297 304.618C107.976 304.716 107.662 304.855 107.365 305.044C105.595 306.17 105.072 308.518 106.198 310.288C106.51 310.777 106.917 311.168 107.377 311.458L107.187 311.604C105.543 312.901 105.703 314.657 105.909 315.717C106.116 316.778 106.697 317.799 107.659 318.305C107.877 318.42 108.118 318.497 108.367 318.545C108.14 319.644 107.957 320.805 108.385 321.833C108.603 322.356 109.05 322.798 109.561 323.044C109.187 323.825 109.216 324.789 109.652 325.539C110.107 326.323 110.985 326.844 111.892 326.866C112.973 326.893 113.99 326.244 114.633 325.374C114.768 325.193 114.88 324.999 114.988 324.802L115.346 325.049L115.515 325.165L117.303 326.395L117.457 326.502L117.952 326.842L118.135 326.968L118.303 327.084L119.525 327.924L119.705 328.048L121.011 328.947L121.179 329.062L121.642 329.381L121.796 329.487L123.346 330.553L123.577 330.712L124.125 331.089L124.301 331.21L124.786 331.544L124.929 331.643L125.996 332.377L126.135 332.472L126.273 332.567L126.817 332.942L126.988 333.059L128.433 334.054L128.573 334.15L131.46 336.136L129.903 332.091ZM125.088 331.689L125.31 330.92L125.088 331.689Z" fill="#F1F2F2"/>
<path d="M122.73 219.093C123.798 219.948 127.395 223.494 128.956 225.044C129.403 225.487 129.547 226.149 129.322 226.738C128.604 228.622 127.065 232.635 126.85 232.965C126.126 234.078 116.629 237.586 116.629 237.586C116.629 237.586 111.466 235.678 111.708 234.079C111.708 234.079 112.815 234.203 113.099 231.851C113.281 230.347 113.582 230.137 112.066 230.143L109.481 230.682C109.481 230.682 107.117 224.5 108.697 222.165C110.547 219.431 109.545 214.087 109.545 214.087C109.545 214.087 116.064 214.351 118.785 214.538C119.797 214.607 122.277 218.729 122.73 219.093Z" fill="#EEB489"/>
<path d="M9.25376 215.597L-6.10352e-05 171.661L0.38932 170.354C0.538639 169.852 4.32017 153.36 11.0887 143.729L23.2111 151.653C18.6471 158.147 13.446 168.651 12.4255 171.682L20.2357 213.524L9.25376 215.597Z" fill="#EEB489"/>
<path d="M9.12842 213.374C9.25198 213.631 8.41051 236.204 12.5909 237.242C14.4149 237.097 12.8682 229.948 12.8682 229.948C12.8682 229.948 14.9783 239.257 17.1905 238.606C19.4028 237.955 17.0353 228.876 17.0353 228.876C17.0353 228.876 19.7808 238.195 21.8225 237.627C23.8641 237.059 20.2616 222.201 20.2616 222.201C20.2616 222.201 24.0406 228.474 25.3129 228.386C26.5853 228.297 23.5693 215.881 21.5208 215.377C20.5045 215.127 18.7307 207.575 18.7307 207.575L9.12842 213.374Z" fill="#EEB489"/>
<path d="M111.257 222.731L86.7922 185.802L80.9618 157.092L91.9098 154.843L97.3026 181.4L120.556 216.501L111.257 222.731Z" fill="#EEB489"/>
<path d="M77.4077 162.683C64.3049 144.039 65.9921 140.699 65.6631 140.38C68.1515 142.796 65.6631 111.362 65.6631 111.362C72.077 113.324 82.6703 118.987 84.9152 121.916C88.2594 126.278 97.0931 147.185 99.7958 157.303L77.4077 162.683Z" fill="#3F3D56"/>
<path d="M13.2986 153.478C21.7291 141.482 31.8427 127.623 33.1236 128.283" stroke="#3F3D56" stroke-width="31" stroke-miterlimit="10"/>
<path d="M42.7893 108.908C38.6198 109.944 26.957 115.503 26.957 115.503L21.8894 130.765L23.8038 212.085H82.3592L79.2051 131.574C79.2051 131.574 78.267 122.092 76.5408 120.231C69.9025 113.073 66.353 110.541 59.7939 109.239C53.2347 107.937 46.9106 107.885 42.7893 108.908Z" fill="#3F3D56"/>
<path d="M29.5504 154.475L22.8028 162.639L1 147" stroke="#161F40" stroke-width="1.25698" stroke-miterlimit="10" stroke-linecap="round"/>
<path d="M80.3393 164.13L101.845 159.025L99.7958 151.211" stroke="#161F40" stroke-width="1.25698" stroke-miterlimit="10" stroke-linecap="round"/>
<path d="M51.5639 118.03H51.5639C54.7984 118.03 57.4205 115.393 57.4205 112.14V99.8083H45.7073V112.14C45.7073 115.393 48.3294 118.03 51.5639 118.03Z" fill="#EEB489"/>
<path d="M62.3058 112.485C62.3058 112.485 60.888 120.196 50.831 119.197C40.774 118.198 40.8261 111.362 40.8261 111.362" stroke="#161F40" stroke-width="1.25698" stroke-miterlimit="10" stroke-linecap="round"/>
<path d="M57.4205 102.461L46.7347 102.571C46.7347 102.571 55.7434 109.692 57.4205 108.537V102.461Z" fill="#161F40"/>
<path d="M52.3612 103.691H58.5534C65.6559 103.691 71.4137 97.9003 71.4137 90.7573V74.132C71.4137 66.9891 65.6559 61.1986 58.5534 61.1986H50.1694C43.0668 61.1986 37.3091 66.9891 37.3091 74.132V88.553C37.3091 96.9134 44.0482 103.691 52.3612 103.691Z" fill="#EEB489"/>
<path d="M37.3197 87.6847C39.7265 87.6847 41.6775 85.4666 41.6775 82.7305C41.6775 79.9943 39.7265 77.7762 37.3197 77.7762C34.913 77.7762 32.9619 79.9943 32.9619 82.7305C32.9619 85.4666 34.913 87.6847 37.3197 87.6847Z" fill="#EEB489"/>
<path d="M79.9075 59.6905C80.1905 57.0575 80.6424 52.9795 77.9181 51.1158C75.3402 49.3524 71.3098 50.2846 69.6761 52.402C68.2186 54.2911 68.8128 56.9367 68.3972 56.9752C67.7492 57.0352 68.1381 50.4347 64.4183 47.6859C62.0883 45.9642 58.2128 45.8028 56.6027 47.543C53.9239 50.4384 56.1507 54.5998 55.5451 54.8419C54.867 55.113 54.1505 47.9874 47.7923 46.2568C43.7823 45.1654 38.655 47.7522 38.4136 50.2583C38.0524 54.0069 48.5385 58.4366 48.645 58.2614C48.7384 58.1075 42.235 52.0921 36.5662 53.5453C34.2194 54.1469 32.0798 56.0121 31.3085 58.4043C30.0752 62.2291 32.36 66.5942 35.2873 67.8364C37.0233 68.573 37.6542 67.6479 41.9297 67.4311C45.5425 67.2478 48.3008 67.7457 51.3084 68.2885C55.786 69.0967 56.172 69.7487 59.4447 70.4088C63.2916 71.1847 71.3765 72.8154 76.2237 68.2885C79.2912 65.4238 79.7305 61.3367 79.9075 59.6905Z" fill="#161F40"/>
<path d="M48.8217 67.1678C48.8217 67.1678 42.1448 76.4282 42.5537 80.7913C42.9626 85.1544 38.7477 82.4446 38.7477 82.4446C38.7477 82.4446 38.1057 77.0982 35.0835 78.4841C34.1527 78.9109 28.2084 66.4047 32.962 65.5142C37.7156 64.6238 48.8217 67.1678 48.8217 67.1678Z" fill="#161F40"/>
<path d="M74 78L68 76" stroke="#161F40" stroke-width="3.78559" stroke-miterlimit="10" stroke-linecap="round"/>
<path d="M51 79L57 76" stroke="#161F40" stroke-width="3.78559" stroke-miterlimit="10" stroke-linecap="round"/>
<path d="M70.3241 83.8266C70.9259 83.8266 71.4138 83.3359 71.4138 82.7306C71.4138 82.1253 70.9259 81.6346 70.3241 81.6346C69.7222 81.6346 69.2343 82.1253 69.2343 82.7306C69.2343 83.3359 69.7222 83.8266 70.3241 83.8266Z" fill="#161F40"/>
<path d="M64.0171 80.1343C65.5758 84.0783 66.0938 86.9025 66.2907 88.566C66.3804 89.3235 66.4592 90.3113 65.8644 90.8526C64.8403 91.7844 62.604 90.679 62.3829 90.5668" stroke="#161F40" stroke-width="1.26186" stroke-miterlimit="10" stroke-linecap="round"/>
<path d="M58.0014 97.659C58.7992 96.1942 60.9644 93.8947 62.5314 94.1766C64.2742 94.4901 65.0502 97.5761 65.0555 99.4428L58.0014 97.659Z" fill="#F1F2F2"/>
<path d="M56.6138 83.8266C57.2156 83.8266 57.7035 83.3359 57.7035 82.7306C57.7035 82.1253 57.2156 81.6346 56.6138 81.6346C56.0119 81.6346 55.524 82.1253 55.524 82.7306C55.524 83.3359 56.0119 83.8266 56.6138 83.8266Z" fill="#161F40"/>
</svg>
