<svg width="51" height="51" viewBox="0 0 51 51" fill="none" xmlns="http://www.w3.org/2000/svg">
<path d="M25.5 0C20.4566 0 15.5264 1.49555 11.333 4.29752C7.13951 7.0995 3.87112 11.0821 1.94108 15.7416C0.0110487 20.4011 -0.493936 25.5283 0.489987 30.4748C1.47391 35.4213 3.90255 39.965 7.46879 43.5312C11.035 47.0975 15.5787 49.5261 20.5252 50.51C25.4717 51.4939 30.5989 50.989 35.2584 49.0589C39.9179 47.1289 43.9005 43.8605 46.7025 39.667C49.5045 35.4736 51 30.5434 51 25.5C51 18.737 48.3134 12.251 43.5312 7.46878C38.7491 2.6866 32.263 0 25.5 0ZM42.1547 16.9416L21.2128 37.8675L8.84532 25.5C8.42263 25.0773 8.18517 24.504 8.18517 23.9062C8.18517 23.3085 8.42263 22.7352 8.84532 22.3125C9.26801 21.8898 9.8413 21.6523 10.4391 21.6523C11.0368 21.6523 11.6101 21.8898 12.0328 22.3125L21.2447 31.5244L38.9991 13.7859C39.2084 13.5766 39.4568 13.4106 39.7303 13.2973C40.0037 13.1841 40.2968 13.1258 40.5928 13.1258C40.8888 13.1258 41.1819 13.1841 41.4553 13.2973C41.7288 13.4106 41.9773 13.5766 42.1866 13.7859C42.3959 13.9952 42.5619 14.2437 42.6752 14.5172C42.7884 14.7906 42.8467 15.0837 42.8467 15.3797C42.8467 15.6757 42.7884 15.9688 42.6752 16.2422C42.5619 16.5157 42.3959 16.7641 42.1866 16.9734L42.1547 16.9416Z" fill="#34A853"/>
</svg>
